<?xml version="1.0" standalone="no"?>
<!DOCTYPE svg PUBLIC "-//W3C//DTD SVG 20010904//EN"
 "http://www.w3.org/TR/2001/REC-SVG-20010904/DTD/svg10.dtd">
<svg version="1.0" xmlns="http://www.w3.org/2000/svg"
 width="100.000000pt" height="100.000000pt" viewBox="0 0 100.000000 100.000000"
 preserveAspectRatio="xMidYMid meet">
<metadata>
Created by potrace 1.14, written by Peter Selinger 2001-2017
</metadata>
<g transform="translate(0.000000,100.000000) scale(0.100000,-0.100000)"
fill="#000000" stroke="none">
<path d="M0 500 l0 -500 500 0 500 0 0 500 0 500 -500 0 -500 0 0 -500z m645
298 c60 -31 124 -96 156 -158 22 -42 24 -59 27 -227 l4 -183 -30 -30 c-26 -26
-38 -30 -82 -30 -62 0 -85 11 -105 50 -21 41 -20 168 1 199 21 29 72 51 120
51 l37 0 -7 53 c-10 73 -40 130 -93 177 -112 98 -273 86 -373 -28 -40 -45 -70
-119 -70 -172 0 -26 3 -28 58 -33 48 -5 62 -11 85 -38 28 -30 29 -34 25 -121
-3 -84 -5 -91 -31 -114 -22 -19 -39 -24 -83 -24 -48 0 -59 4 -86 30 l-30 30 4
183 c3 206 11 231 92 315 73 77 139 103 251 98 63 -2 91 -8 130 -28z"/>
<path d="M230 325 c0 -70 2 -76 24 -86 14 -7 36 -9 51 -5 25 6 26 8 23 84 l-3
77 -47 3 -48 3 0 -76z"/>
<path d="M677 393 c-4 -3 -7 -39 -7 -79 0 -77 5 -84 55 -84 33 0 45 27 45 104
l0 66 -43 0 c-24 0 -47 -3 -50 -7z"/>
</g>
</svg>
